<?xml version="1.0" encoding="UTF-8" standalone="no"?>
<svg
   id="svg3277"
   height="24"
   width="24"
   version="1.1"
   sodipodi:docname="folder-tag.svg"
   inkscape:version="1.2.2 (b0a8486541, 2022-12-01)"
   xmlns:inkscape="http://www.inkscape.org/namespaces/inkscape"
   xmlns:sodipodi="http://sodipodi.sourceforge.net/DTD/sodipodi-0.dtd"
   xmlns:xlink="http://www.w3.org/1999/xlink"
   xmlns="http://www.w3.org/2000/svg"
   xmlns:svg="http://www.w3.org/2000/svg"
   xmlns:rdf="http://www.w3.org/1999/02/22-rdf-syntax-ns#"
   xmlns:cc="http://creativecommons.org/ns#"
   xmlns:dc="http://purl.org/dc/elements/1.1/">
  <sodipodi:namedview
     id="namedview4695"
     pagecolor="#ffffff"
     bordercolor="#666666"
     borderopacity="1.0"
     inkscape:showpageshadow="2"
     inkscape:pageopacity="0.0"
     inkscape:pagecheckerboard="0"
     inkscape:deskcolor="#d1d1d1"
     showgrid="false"
     inkscape:zoom="9.8333333"
     inkscape:cx="8.2372881"
     inkscape:cy="12"
     inkscape:window-width="1920"
     inkscape:window-height="1028"
     inkscape:window-x="0"
     inkscape:window-y="27"
     inkscape:window-maximized="1"
     inkscape:current-layer="svg3277" />
  <metadata
     id="metadata46">
    <rdf:RDF>
      <cc:Work
         rdf:about="">
        <dc:format>image/svg+xml</dc:format>
        <dc:type
           rdf:resource="http://purl.org/dc/dcmitype/StillImage" />
        <dc:title />
      </cc:Work>
    </rdf:RDF>
  </metadata>
  <defs
     id="defs3279">
    <linearGradient
       gradientTransform="translate(-0.99999992,0.9994521)"
       gradientUnits="userSpaceOnUse"
       xlink:href="#linearGradient3251"
       id="linearGradient3153"
       y2="-0.02451775"
       x2="17.591623"
       y1="7"
       x1="17.591623" />
    <linearGradient
       id="linearGradient3251">
      <stop
         offset="0"
         style="stop-color:#917f6e;stop-opacity:1"
         id="stop3253" />
      <stop
         offset="1"
         style="stop-color:#cbbaa9;stop-opacity:1"
         id="stop3255" />
    </linearGradient>
    <linearGradient
       gradientTransform="translate(-25,-2.0005479)"
       gradientUnits="userSpaceOnUse"
       xlink:href="#linearGradient4222"
       id="linearGradient3156"
       y2="7.0924568"
       x2="40.006763"
       y1="12.910877"
       x1="40.006763" />
    <linearGradient
       id="linearGradient4222">
      <stop
         offset="0"
         style="stop-color:#ffffff;stop-opacity:1"
         id="stop4224" />
      <stop
         offset="1"
         style="stop-color:#ffffff;stop-opacity:0"
         id="stop4226" />
    </linearGradient>
    <linearGradient
       gradientTransform="translate(-25,-2.0005479)"
       gradientUnits="userSpaceOnUse"
       xlink:href="#linearGradient4222"
       id="linearGradient3159"
       y2="22.697742"
       x2="38.382198"
       y1="5.90625"
       x1="38.382198" />
    <linearGradient
       gradientTransform="translate(-25,-2.0005479)"
       gradientUnits="userSpaceOnUse"
       xlink:href="#linearGradient3243"
       id="linearGradient3162"
       y2="24.0341"
       x2="39.905758"
       y1="6.1230369"
       x1="39.905758" />
    <linearGradient
       id="linearGradient3243">
      <stop
         offset="0"
         style="stop-color:#fff4e9;stop-opacity:1"
         id="stop3245" />
      <stop
         offset="1"
         style="stop-color:#e7d6c5;stop-opacity:1"
         id="stop3247" />
    </linearGradient>
    <linearGradient
       gradientTransform="translate(-25,-2.0005479)"
       gradientUnits="userSpaceOnUse"
       xlink:href="#linearGradient3251"
       id="linearGradient3164"
       y2="5"
       x2="32.015705"
       y1="24.011269"
       x1="32.015705" />
    <linearGradient
       id="linearGradient3283">
      <stop
         offset="0"
         style="stop-color:#000000;stop-opacity:1"
         id="stop3285" />
      <stop
         offset="1"
         style="stop-color:#000000;stop-opacity:0"
         id="stop3287" />
    </linearGradient>
    <radialGradient
       gradientTransform="matrix(0.9767045,0,0,0.32556818,-1.2272721,12.440316)"
       gradientUnits="userSpaceOnUse"
       xlink:href="#linearGradient3283"
       id="radialGradient3275"
       fy="20.146597"
       fx="10.471204"
       r="9.2146597"
       cy="20.146597"
       cx="10.471204" />
  </defs>
  <path
     d="m 17.999999,18.999408 a 8.9999996,3.0000001 0 1 1 -17.99999885,0 8.9999996,3.0000001 0 1 1 17.99999885,0 z"
     id="path3281"
     style="display:inline;overflow:visible;visibility:visible;opacity:0.3;fill:url(#radialGradient3275);fill-opacity:1;fill-rule:evenodd;stroke:none;stroke-width:1;marker:none;enable-background:accumulate" />
  <path
     d="m 11,3.499452 -9.4999999,9.84375 8.2500001,8.15625 9.7499998,-9.5 0,-8.5 -8.5,0 z m 4,3 c 0.828,0 1.5,0.672 1.5,1.5 0,0.828 -0.672,1.5 -1.5,1.5 -0.828,0 -1.5,-0.672 -1.5,-1.5 0,-0.828 0.672,-1.5 1.5,-1.5 z"
     id="path2463"
     style="fill:url(#linearGradient3162);fill-opacity:1;fill-rule:evenodd;stroke:url(#linearGradient3164);stroke-width:1px;stroke-linecap:butt;stroke-linejoin:miter;stroke-opacity:1" />
  <path
     d="m 11.375,4.405702 c -2.8645828,2.96875 -5.7291668,5.9375 -8.5937498,8.90625 2.322917,2.291667 4.645833,4.583333 6.96875,6.875 2.9479168,-2.864583 5.8958328,-5.729167 8.8437498,-8.59375 0,-2.395833 0,-4.791667 0,-7.1875 -2.40625,0 -4.8125,0 -7.21875,0 z"
     id="path3265"
     style="opacity:0.6;fill:none;stroke:url(#linearGradient3159);stroke-width:1px;stroke-linecap:butt;stroke-linejoin:miter;stroke-opacity:1" />
  <path
     d="m 15,5.593202 c 1.513288,-0.05335 2.761066,1.553793 2.330349,3.00682 C 17.01051,10.02584 15.254834,10.84754 13.957822,10.168016 12.622824,9.578328 12.157474,7.700929 13.072482,6.56077 13.516976,5.959282 14.251129,5.587409 15,5.593202 Z"
     id="path3294"
     style="opacity:0.6;fill:none;stroke:url(#linearGradient3156);stroke-width:1px;stroke-linecap:butt;stroke-linejoin:miter;stroke-opacity:1" />
  <path
     d="m 15.5,7.499452 c 1.109018,-0.587219 2.554024,-0.767119 3.926872,-0.797739 0.617147,-0.01376 1.240944,0.1119 1.84653,-0.03214 C 22.044144,6.486243 22.569385,5.92156 22.492551,5.405324 22.38941,4.71236 21.458534,4.2008 20.58549,3.834725 19.811082,3.510009 19.215046,2.931373 18.900054,2.32011 18.740908,2.011277 19.01884,1.6869991 19.464647,1.58745 c 0.404996,-0.090436 0.829182,-0.1261828 1.241295,-0.034356 0.627242,0.1397617 1.367682,0.3102703 1.65947,0.75466"
     id="path3298"
     style="fill:none;stroke:url(#linearGradient3153);stroke-width:0.99999994px;stroke-linecap:butt;stroke-linejoin:miter;stroke-opacity:1" />
  <g
     id="g3687"
     transform="matrix(0.50867322,0,0,0.5160108,9.0253424,7.4517126)">
    <ellipse
       style="fill:#fefefe;fill-opacity:1;stroke:none;stroke-width:0.997235;stroke-linecap:round;stroke-linejoin:round;stroke-dasharray:none;stroke-opacity:1"
       id="path3681"
       cx="17.509268"
       cy="22.527147"
       rx="10.464592"
       ry="8.0599051" />
    <g
       fill="#2e3436"
       id="g1975"
       transform="matrix(1.1520349,0,0,1.1520349,8.1319552,13.379607)">
      <path
         d="M 8,2 C 4.351562,2.003906 1.167969,4.476562 0.261719,8.007812 1.175781,11.535156 4.359375,13.996094 8,14 11.648438,13.996094 14.832031,11.523438 15.738281,7.988281 14.824219,4.464844 11.640625,2.003906 8,2 Z m 0,2 c 2.210938,0 4,1.789062 4,4 0,2.210938 -1.789062,4 -4,4 C 5.789062,12 4,10.210938 4,8 4,5.789062 5.789062,4 8,4 Z m 0,0"
         id="path1971" />
      <path
         d="M 10,8 C 10,9.105469 9.105469,10 8,10 6.894531,10 6,9.105469 6,8 6,6.894531 6.894531,6 8,6 c 1.105469,0 2,0.894531 2,2 z m 0,0"
         id="path1973" />
    </g>
  </g>
</svg>
