<?xml version="1.0" encoding="UTF-8" standalone="no"?>
<svg
   version="1.0"
   width="1280.000000pt"
   height="1280.000000pt"
   viewBox="0 0 1280.000000 1280.000000"
   preserveAspectRatio="xMidYMid meet"
   id="svg146"
   sodipodi:docname="trace.svg"
   inkscape:version="1.2.2 (b0a8486541, 2022-12-01)"
   xmlns:inkscape="http://www.inkscape.org/namespaces/inkscape"
   xmlns:sodipodi="http://sodipodi.sourceforge.net/DTD/sodipodi-0.dtd"
   xmlns="http://www.w3.org/2000/svg"
   xmlns:svg="http://www.w3.org/2000/svg">
  <defs
     id="defs150" />
  <sodipodi:namedview
     id="namedview148"
     pagecolor="#ffffff"
     bordercolor="#666666"
     borderopacity="1.0"
     inkscape:showpageshadow="2"
     inkscape:pageopacity="0.0"
     inkscape:pagecheckerboard="0"
     inkscape:deskcolor="#d1d1d1"
     inkscape:document-units="pt"
     showgrid="false"
     inkscape:zoom="0.2765625"
     inkscape:cx="515.25424"
     inkscape:cy="618.30509"
     inkscape:window-width="1920"
     inkscape:window-height="1028"
     inkscape:window-x="1920"
     inkscape:window-y="27"
     inkscape:window-maximized="1"
     inkscape:current-layer="svg146" />
  <metadata
     id="metadata124">
Created by potrace 1.15, written by Peter Selinger 2001-2017
</metadata>
  <path
     d="m 424.71467,334.33828 c 0,81.7437 -0.43173,103.9066 -1.72697,104.33834 -1.0074,0.28783 -6.04443,0.86349 -11.08145,1.0074 l -9.06664,0.43176 -13.67192,-51.08981 c -7.48358,-28.06342 -13.81583,-51.23373 -13.95976,-51.37765 -0.28783,-0.28782 -22.88247,5.46878 -29.79038,7.48359 -1.87091,0.71958 -0.14393,8.6349 11.6571,52.67286 l 13.95976,51.95329 -6.6201,2.87831 c -3.59787,1.58306 -8.05922,3.45395 -9.7862,4.02963 -2.8783,1.1513 -6.6201,-4.89313 -53.8242,-86.78072 -27.77559,-48.49934 -51.37763,-88.79552 -52.24113,-89.80293 -1.15131,-1.29523 -4.8931,0.14391 -15.54281,6.33226 -7.62748,4.60528 -13.67192,8.49098 -13.52799,8.92273 0.28782,0.57565 23.60204,40.87184 51.80936,89.65901 28.20734,48.93109 51.23372,89.08335 51.23372,89.37118 0,0.28783 -3.59787,3.31004 -8.20314,6.62009 l -8.05925,6.18833 -37.5618,-37.56179 c -20.72374,-20.72376 -38.28137,-37.5618 -39.00094,-37.5618 -1.8709,0 -22.30682,20.43592 -22.30682,22.30681 0,0.71957 16.83805,18.2772 37.5618,39.00095 l 37.5618,37.5618 -6.18835,8.05924 c -3.31004,4.60528 -6.18833,8.20316 -6.47616,8.20316 -0.43175,0 -117.86634,-67.64003 -173.993166,-100.1648 l -5.900522,-3.31006 -8.059228,13.95975 c -6.332261,10.64971 -7.771406,14.39151 -6.476178,15.54281 1.007407,0.86349 41.303594,24.32164 89.802924,52.24113 82.31934,47.49194 87.93203,50.94589 86.78071,53.8242 -0.57565,1.72697 -2.44655,6.18834 -4.02961,9.78621 l -2.8783,6.62009 -51.9533,-13.95975 c -44.03796,-11.80103 -51.95329,-13.52801 -52.67287,-11.65712 -2.0148,6.76401 -7.7714,29.50257 -7.48357,29.7904 0.14391,0.14392 22.59464,6.18834 49.93848,13.3841 27.34383,7.33965 50.51415,13.528 51.52156,13.95974 1.58306,0.43174 1.72698,2.73438 1.00739,10.21796 -0.57565,5.46878 -1.15131,9.93014 -1.43915,10.21796 -0.14391,0.14392 -46.91626,0.43175 -103.76267,0.71957 l -103.474843,0.28783 v 16.55022 16.55023 l 103.474843,0.28783 c 56.84641,0.28782 103.61876,0.57565 103.76267,0.71957 0.28784,0.28783 0.8635,4.74918 1.43915,10.21796 0.71959,7.48358 0.57567,9.78622 -1.00739,10.21796 -1.00741,0.43175 -24.17773,6.62009 -51.52156,13.95975 -27.34384,7.19575 -49.79457,13.24017 -49.93848,13.38409 -0.28783,0.28783 5.46877,23.02639 7.48357,29.7904 0.71958,1.87089 8.63491,0.14391 52.67287,-11.65712 l 51.9533,-13.95975 2.8783,6.62009 c 1.58306,3.59787 3.45396,8.05924 4.02961,9.78622 1.15132,2.8783 -4.46137,6.33225 -86.78071,53.8242 -48.49933,27.91948 -88.795517,51.37763 -89.802924,52.24112 -1.295228,1.15131 0.143917,4.8931 6.332262,15.54281 4.605281,7.62749 8.490978,13.67192 8.922729,13.528 0.575655,-0.28783 40.871843,-23.60205 89.802923,-51.80938 48.78716,-28.20732 89.08335,-51.23373 89.37118,-51.23373 0.28783,0 3.16612,3.59788 6.47616,8.20316 l 6.18835,8.05924 -37.5618,37.5618 c -20.72375,20.72375 -37.5618,38.28138 -37.5618,39.00095 0,1.87089 20.43592,22.30681 22.30682,22.30681 0.71957,0 18.2772,-16.83804 39.00094,-37.5618 l 37.5618,-37.56179 8.05925,6.18833 c 4.60527,3.31005 8.20314,6.33226 8.20314,6.62009 0,0.28783 -23.02638,40.4401 -51.23372,89.37118 -28.20732,48.78717 -51.52154,89.08335 -51.80936,89.65901 -0.14393,0.43175 5.90051,4.31745 13.52799,8.92271 10.64971,6.1884 14.3915,7.6275 15.54281,6.3323 0.8635,-1.0074 24.46554,-41.30362 52.24113,-89.80294 47.2041,-81.8876 50.9459,-87.93204 53.8242,-86.78072 1.72698,0.57567 6.18833,2.44656 9.7862,4.02962 l 6.6201,2.87831 -13.95976,51.95329 c -11.80103,44.03797 -13.52801,51.95329 -11.6571,52.67286 6.90791,2.01481 29.50255,7.77141 29.79038,7.48359 0.14393,-0.14392 6.47618,-23.31422 13.95976,-51.37764 l 13.67192,-51.08982 9.06664,0.43176 c 5.03702,0.14392 10.07405,0.71957 11.08145,1.0074 1.29524,0.43175 1.72697,22.59465 1.72697,104.33834 v 103.61875 h 16.55022 16.55023 V 955.76302 l -0.14393,-104.05051 9.78623,-1.15132 c 5.18093,-0.57566 10.07404,-0.57566 10.50579,0 0.57565,0.71957 6.90792,23.74597 14.39149,51.52155 7.33966,27.63167 13.52801,50.51415 13.67193,50.65807 0.28782,0.43173 31.08562,-7.77142 31.51736,-8.49098 0.14392,-0.14392 -5.90051,-23.60206 -13.528,-51.95331 l -13.95975,-51.66545 6.62009,-2.87831 c 3.59787,-1.58306 8.05923,-3.45395 9.78621,-4.02962 2.8783,-1.15132 6.47618,4.60528 53.53637,86.06115 27.63166,48.06758 51.23371,88.50771 52.24112,89.80291 1.72698,2.3027 3.02221,1.8709 15.83064,-5.6127 l 13.95975,-8.20314 -3.31004,-5.90051 c -65.62521,-113.11714 -100.1648,-173.99316 -99.1574,-174.71273 0.57566,-0.57567 4.31744,-3.45396 8.05924,-6.47618 l 7.05184,-5.61267 37.7057,37.7057 c 20.57984,20.57985 38.28139,37.5618 39.00096,37.5618 1.8709,0 22.30682,-20.43592 22.30682,-22.30681 0,-0.71957 -16.98197,-18.42111 -37.56182,-39.00095 l -37.7057,-37.70571 5.61268,-7.05184 c 3.02222,-3.74179 5.90051,-7.48357 6.47617,-8.05924 0.57566,-0.71958 41.01577,21.87507 89.94683,50.08241 49.07501,28.35124 89.51511,51.66546 89.94685,51.95329 0.43176,0.28783 4.46136,-5.90051 8.92273,-13.528 6.18835,-10.64971 7.62749,-14.3915 6.33227,-15.54281 -1.00741,-0.86349 -41.3036,-24.32164 -89.80293,-52.24112 l -87.93204,-50.65807 4.02962,-9.64231 c 2.15873,-5.32485 4.46137,-9.49838 5.18093,-9.35446 0.71958,0 23.60206,6.04442 50.9459,13.38408 27.34383,7.33967 50.22632,13.3841 50.94589,13.3841 1.00741,0.28782 10.21796,-30.50997 9.21055,-31.37346 -0.57566,-0.43175 -39.72052,-10.93754 -75.26751,-20.29201 -14.24758,-3.7418 -26.33643,-7.19575 -27.05601,-7.77141 -0.57565,-0.43174 -0.57565,-5.18094 0,-10.50579 l 1.15132,-9.6423 310.85628,-0.43174 310.85625,-0.28783 v -16.55023 -16.55022 l -310.85625,-0.28783 -310.85628,-0.43174 -1.15132,-9.64229 c -0.57565,-5.32486 -0.57565,-10.07406 0,-10.50579 0.71958,-0.57567 12.80843,-4.02962 27.05601,-7.77142 35.54699,-9.35446 74.69185,-19.86026 75.26751,-20.292 1.00741,-0.8635 -8.20314,-31.66128 -9.21055,-31.37346 -0.71957,0 -23.60206,6.04442 -50.94589,13.38409 -27.34384,7.33966 -50.22632,13.38408 -50.9459,13.38408 -0.71956,0.14392 -3.0222,-4.02961 -5.18093,-9.35447 l -4.02962,-9.6423 87.93204,-50.65806 c 48.49933,-27.91949 88.79552,-51.37764 89.80293,-52.24113 1.29522,-1.1513 -0.14392,-4.8931 -6.33227,-15.54281 -4.46137,-7.62749 -8.49097,-13.81583 -8.92273,-13.528 -0.43174,0.28783 -40.87184,23.60206 -89.94685,51.9533 -48.93106,28.20732 -89.37117,50.80198 -89.94683,50.0824 -0.57566,-0.57566 -3.45395,-4.31745 -6.47617,-8.05924 l -5.61268,-7.05183 37.7057,-37.70572 c 20.57985,-20.57984 37.56182,-38.28138 37.56182,-39.00095 0,-1.87089 -20.43592,-22.30681 -22.30682,-22.30681 -0.71957,0 -18.42112,16.98195 -39.00096,37.5618 l -37.7057,37.70571 -7.05184,-5.61268 c -3.7418,-3.02222 -7.48358,-5.9005 -8.05924,-6.47618 -1.0074,-0.71956 33.53219,-61.59559 99.1574,-174.71273 l 3.31004,-5.90051 -13.95975,-8.20316 c -12.80843,-7.48358 -14.10366,-7.91532 -15.83064,-5.61269 -1.00741,1.29524 -24.60946,41.73534 -52.24112,89.80292 -47.06019,81.45588 -50.65807,87.21246 -53.53637,86.06116 -1.72698,-0.57568 -6.18834,-2.44657 -9.78621,-4.02963 l -6.62009,-2.87831 13.95975,-51.66545 c 7.62749,-28.35125 13.67192,-51.80939 13.528,-51.9533 -0.43174,-0.71957 -31.22954,-8.92272 -31.51736,-8.49099 -0.14392,0.14392 -6.33227,22.88249 -13.67193,50.65807 -7.48357,27.63167 -13.95975,50.9459 -14.53541,51.52155 -0.43173,0.71957 -5.18094,0.71957 -10.50579,0 l -9.64231,-1.15132 0.14393,-104.0505 V 230.71953 h -16.55023 -16.55022 z"
     id="path134"
     style="fill:#ff0000;fill-opacity:1;stroke:none;stroke-width:0.143915" />
</svg>
