<?xml version="1.0" encoding="UTF-8" standalone="no"?>
<svg
   width="512"
   height="512"
   version="1.0"
   viewBox="0 0 51.2 51.2"
   id="svg53"
   sodipodi:docname="world.svg"
   inkscape:version="1.2.2 (b0a8486541, 2022-12-01)"
   xmlns:inkscape="http://www.inkscape.org/namespaces/inkscape"
   xmlns:sodipodi="http://sodipodi.sourceforge.net/DTD/sodipodi-0.dtd"
   xmlns:xlink="http://www.w3.org/1999/xlink"
   xmlns="http://www.w3.org/2000/svg"
   xmlns:svg="http://www.w3.org/2000/svg">
  <sodipodi:namedview
     id="namedview55"
     pagecolor="#ffffff"
     bordercolor="#666666"
     borderopacity="1.0"
     inkscape:showpageshadow="2"
     inkscape:pageopacity="0.0"
     inkscape:pagecheckerboard="0"
     inkscape:deskcolor="#d1d1d1"
     showgrid="false"
     inkscape:zoom="1.1812769"
     inkscape:cx="293.32666"
     inkscape:cy="278.51218"
     inkscape:window-width="1920"
     inkscape:window-height="1028"
     inkscape:window-x="0"
     inkscape:window-y="27"
     inkscape:window-maximized="1"
     inkscape:current-layer="svg53" />
  <defs
     id="defs35">
    <linearGradient
       inkscape:collect="always"
       id="linearGradient967">
      <stop
         style="stop-color:#ffffff;stop-opacity:1;"
         offset="0"
         id="stop963" />
      <stop
         style="stop-color:#050059;stop-opacity:1;"
         offset="1"
         id="stop965" />
    </linearGradient>
    <radialGradient
       id="a">
      <stop
         offset="0"
         stop-opacity=".31182796"
         id="stop2" />
      <stop
         offset=".88"
         stop-opacity=".60573477"
         id="stop4" />
      <stop
         offset="1"
         stop-opacity="0"
         id="stop6" />
    </radialGradient>
    <radialGradient
       xlink:href="#a"
       id="f"
       cx="31.385874"
       cy="32.356133"
       r="26.5"
       fx="31.385874"
       fy="32.356133"
       gradientTransform="matrix(.91013 -.00532 .00485 .8549 -2.1971929 .7835824)"
       gradientUnits="userSpaceOnUse" />
    <radialGradient
       xlink:href="#b"
       id="g"
       cx="16.352713"
       cy="26.318125"
       r="26.799999"
       fx="16.352713"
       fy="26.318125"
       gradientTransform="matrix(.32793 1.0173 -.85003 .26588 32.969122 -4.8832428)"
       gradientUnits="userSpaceOnUse" />
    <radialGradient
       xlink:href="#c"
       id="h"
       cx="67.993698"
       cy="60.526325"
       r="59.6563"
       fx="67.993698"
       fy="60.526325"
       gradientTransform="matrix(1,0,0,1.00872,0,-0.5276103)"
       gradientUnits="userSpaceOnUse" />
    <radialGradient
       xlink:href="#c"
       id="j"
       cx="67.993698"
       cy="60.526325"
       r="59.6563"
       fx="67.993698"
       fy="60.526325"
       gradientTransform="matrix(0.35178,0,0,0.35328401,3.0947694,3.1139344)"
       gradientUnits="userSpaceOnUse" />
    <radialGradient
       xlink:href="#c"
       id="k"
       cx="67.993698"
       cy="60.526325"
       r="59.6563"
       fx="67.993698"
       fy="60.526325"
       gradientTransform="matrix(0.35178,0,0,0.35328401,3.0947694,3.1139344)"
       gradientUnits="userSpaceOnUse" />
    <radialGradient
       xlink:href="#c"
       id="l"
       cx="67.993698"
       cy="60.526325"
       r="59.6563"
       fx="67.993698"
       fy="60.526325"
       gradientTransform="matrix(0.35178,0,0,0.35328401,3.0947694,3.1139344)"
       gradientUnits="userSpaceOnUse" />
    <linearGradient
       xlink:href="#b"
       id="d"
       x1="54.509937"
       x2="9.5471001"
       y1="41.179295"
       y2="16.248501"
       gradientUnits="userSpaceOnUse"
       spreadMethod="pad">
      <stop
         offset="0"
         stop-color="#3e79ca"
         id="stop15"
         style="stop-color:#73dcff;stop-opacity:1;" />
      <stop
         offset="1"
         stop-color="#36a8ff"
         id="stop17" />
    </linearGradient>
    <linearGradient
       id="c">
      <stop
         offset="0"
         stop-color="#49c007"
         id="stop20" />
      <stop
         offset="1"
         stop-color="#209305"
         id="stop22" />
    </linearGradient>
    <linearGradient
       id="b"
       x1="52.778114"
       x2="22.0144"
       y1="-13.238551"
       y2="51.987099"
       gradientUnits="userSpaceOnUse">
      <stop
         offset="0"
         stop-color="#d8ebff"
         id="stop25" />
      <stop
         offset="1"
         stop-color="#4fa9ff"
         id="stop27" />
    </linearGradient>
    <linearGradient
       xlink:href="#d"
       id="m"
       x1="55.454102"
       x2="9.5471001"
       y1="42.752899"
       y2="16.248501"
       gradientTransform="translate(-2.141225 -2.1412311) scale(.89488)"
       gradientUnits="userSpaceOnUse" />
    <path
       id="e"
       d="M127.65 64c0 35.15-28.5 63.65-63.66 63.65C28.85 127.65.35 99.15.35 64 .35 28.84 28.85.35 63.99.35c35.16 0 63.66 28.49 63.66 63.65z" />
    <clipPath
       clipPathUnits="userSpaceOnUse"
       id="clipPath922">
      <g
         id="g926">
        <use
           xlink:href="#e"
           width="100%"
           height="100%"
           overflow="visible"
           id="use924"
           transform="matrix(0.35178,0,0,0.35023,3.0947694,3.2987194)" />
      </g>
    </clipPath>
    <clipPath
       clipPathUnits="userSpaceOnUse"
       id="clipPath928">
      <g
         id="g932">
        <use
           xlink:href="#e"
           width="100%"
           height="100%"
           overflow="visible"
           id="use930"
           transform="matrix(0.35178,0,0,0.35023,3.0947694,3.2987194)" />
      </g>
    </clipPath>
    <clipPath
       clipPathUnits="userSpaceOnUse"
       id="clipPath934">
      <g
         id="g938">
        <use
           xlink:href="#e"
           width="100%"
           height="100%"
           overflow="visible"
           id="use936"
           transform="matrix(0.35178,0,0,0.35023,3.0947694,3.2987194)" />
      </g>
    </clipPath>
    <radialGradient
       inkscape:collect="always"
       xlink:href="#linearGradient967"
       id="radialGradient971"
       cx="25.6"
       cy="25.6"
       fx="25.6"
       fy="25.6"
       r="22.6"
       gradientUnits="userSpaceOnUse" />
  </defs>
  <ellipse
     cx="27.725"
     cy="26.120001"
     fill="url(#f)"
     rx="27.035"
     ry="27.299999"
     id="ellipse37" />
  <circle
     cx="25.6"
     cy="25.6"
     r="22.6"
     fill="url(#g)"
     id="circle39" />
  <circle
     cx="25.6"
     cy="25.6"
     r="22.6"
     fill="#fff"
     opacity=".29807691"
     id="circle41"
     style="stroke:none;fill:url(#radialGradient971);fill-opacity:1" />
  <path
     fill="url(#j)"
     d="M 41.435272,32.27675 C 41.065903,32.000068 40.313093,31.663847 39.894475,31.600806 39.180362,31.492234 38.793404,31.740898 38.459213,30.987903 38.181307,30.360991 37.973756,29.968734 37.477747,29.450393 36.520905,28.45574 35.655526,28.01445 34.357458,27.517124 H 32.14828 c -0.9287,-0.252166 -1.860917,-0.581382 -2.6876,0.154101 -0.08795,0.07705 -0.161818,0.175115 -0.242728,0.262673 -0.09146,0.09806 -0.503045,0.133087 -0.636722,0.16811 -0.186443,0.04553 -0.38344,0.101567 -0.580437,0.105069 -0.30253,0.007 -0.717631,-0.07355 -0.925181,-0.311705 -0.119605,-0.136589 -0.189961,-0.406267 -0.20755,-0.584884 -0.02111,-0.238156 0.08091,-0.444792 0.08443,-0.672441 0.007,-0.203134 0.01759,-0.437788 -0.0387,-0.630414 -0.116087,-0.402765 -0.573401,-0.518341 -0.928699,-0.595391 -0.211068,-0.04553 -0.418618,-0.07705 -0.633204,-0.147097 -0.538223,-0.18212 -0.260317,-0.9141 -0.03166,-1.239814 0.232175,-0.332719 0.566366,-0.563871 0.007,-0.868571 -0.450278,-0.241658 -1.002573,-0.203133 -1.400084,0.09106 -0.379922,0.287189 -0.629686,0.844054 -1.090518,0.987649 -0.52767,0.16811 -1.101071,-0.217143 -1.600599,-0.287189 0.04925,-0.661935 -0.284942,-1.880735 -0.267353,-2.181933 0.04925,-0.795022 0.636722,-1.656588 1.40712,-1.866726 0.770398,-0.210138 1.618188,-0.371243 2.416729,-0.287188 1.234748,0.129585 1.181981,0.788017 1.825738,1.646081 0.211068,0.280184 0.615615,0.6094 0.981466,0.416773 0.777434,-0.406266 0.538224,-1.449952 0.562848,-2.153914 0.0387,-1.09622 0.745774,-1.758155 1.421191,-2.567186 0.249764,-0.297695 0.503046,-0.591889 0.749292,-0.893086 0.221621,-0.27318 0.481938,-0.528848 0.854825,-0.598894 0.260317,-0.04553 0.580437,0.0035 0.844272,0.0035 0.429172,0 1.248819,0.143594 1.498583,-0.294194 0.232175,-0.413271 -0.109052,-0.696957 -0.453796,-0.830045 -0.140712,-0.05604 -0.379923,-0.08406 -0.422136,-0.25917 -0.14423,-0.612902 0.517116,-0.633916 0.928699,-0.70046 0.372887,-0.05954 0.854825,-0.18212 1.139767,0.161106 0.126641,0.154101 0.06332,0.339723 0.20755,0.497326 0.263835,0.283687 0.942771,0.122581 1.227713,-0.04203 0.330673,-0.192627 0.422136,-0.731981 0.422136,-1.082211 0,-0.182119 -0.02814,-0.371244 -0.133677,-0.521843 C 36.165607,11.99493 35.338924,11.812811 34.923824,11.578157 34.318762,11.234931 33.755914,10.828664 33.20362,10.411891 32.556344,9.925071 31.849267,9.5328134 31.135153,9.1580673 30.519538,8.839358 29.756176,8.3105107 29.035027,8.4365935 c -0.281424,0.04553 -0.436208,0.2486633 -0.49601,0.5183404 -0.0387,0.2031334 -0.133677,0.4097691 -0.133677,0.6199071 0.0035,0.2556679 0.123123,0.490322 0.196997,0.728478 0.09146,0.297696 0.165337,0.602396 -0.07036,0.851059 -0.225139,0.234654 -0.724667,0.22765 -0.984984,0.03502 -0.316602,-0.238156 -0.44676,-0.619907 -0.795023,-0.802026 -0.386958,-0.203134 -0.675417,-0.259171 -1.108107,-0.206636 -0.404547,0.04903 -0.890003,0.09806 -1.29455,-0.0035 -0.386958,-0.09456 -0.763363,-0.5603684 -0.770398,-0.9561283 -0.007,-0.2836863 0.05629,-0.6794462 0.327155,-0.8370497 0.32012,-0.1821196 0.851308,-0.1365897 1.210123,-0.1646081 0.07387,-0.0035 0.14423,-0.010507 0.211068,-0.017511 0.01055,-0.0035 0.02111,-0.0035 0.03166,-0.0035 0.01055,-0.0035 0.02462,-0.0035 0.03518,-0.0035 0.102016,-0.014009 0.196996,-0.024516 0.263835,-0.042028 -0.0035,-0.007 -0.01407,-0.014009 -0.01759,-0.021014 0.05628,0.105069 0.376404,-0.3572346 0.386958,-0.4097691 0.05628,-0.2311518 -0.116088,-0.5008289 -0.03166,-0.7179715 0.06332,-0.1611058 0.291978,-0.2626725 0.443243,-0.3117047 0.235693,-0.073548 0.478421,-0.031521 0.717631,-0.007 0.193479,0.021014 0.40103,0.021014 0.590991,0.059539 0.439725,0.09106 0.453796,0.4342852 0.728184,0.70046 0.393994,0.3677415 0.633204,0.2066357 1.146803,0.2766817 0.552295,0.073548 2.001628,1.0191693 2.49412,0.280184 C 32.665396,7.1792678 31.18792,6.5733699 30.730606,6.422771 30.009457,6.1846146 29.291826,5.6977949 28.820441,5.1024039 28.588266,4.8082107 28.40534,4.4509761 28.412376,4.0657231 c 0.01055,-0.3117047 0,-0.7915198 0.291977,-0.9911509 0.07036,-0.04553 0.147748,-0.073548 0.228657,-0.077051 0.14423,-0.014009 0.302531,-0.021014 0.422136,0.049032 0.17589,0.1085713 0.32012,0.3187093 0.411583,0.4973266 0.193479,0.385253 0.126641,0.7529945 0.404547,1.1382475 0.277906,0.3747461 0.64024,0.6794462 0.977948,0.9946532 0.875933,0.8125336 1.843328,1.5340074 2.965506,1.961288 0.605061,0.2311518 1.241783,0.4097691 1.815185,0.7249761 0.650793,0.3642392 0.890003,0.8335474 1.322692,1.3904131 1.213641,1.5515183 4.773655,1.0471873 3.939936,-1.40092 C 40.566375,6.5173331 39.342181,4.9448004 37.709921,3.9501472 36.925452,3.4738344 36.221892,2.8118997 35.430387,2.3706099 34.438367,1.8207488 33.249351,1.6526384 32.144762,1.4705188 30.839658,1.2568785 29.559179,1.1588141 28.240004,1.099275 27.279644,1.0572474 26.263,0.9031462 25.46446,1.5475694 c -0.425654,0.3397231 -1.677991,1.5199982 -1.702616,2.0103202 -0.02462,0.4693082 0.594509,0.7214738 0.693007,1.1522567 0.0387,0.1856219 0.05277,0.35023 -0.09146,0.490322 -0.158301,0.1541012 -0.376404,0.2031334 -0.411582,0.4482944 -0.02814,0.2136403 0.05277,0.3572346 0.137194,0.5393542 0.06684,0.140092 0.211068,0.4097691 0.08795,0.5673726 C 23.849789,7.1652586 23.410064,6.4262733 23.381922,6.1460893 23.339708,5.6907903 23.483938,5.2950304 23.019589,5.0078418 22.706504,4.8152153 21.855197,4.7311601 21.725038,5.1864591 21.661718,5.4036017 21.907964,5.6137397 21.879821,5.8659053 21.820019,6.3772411 21.478792,6.247656 21.088316,6.3141997 20.405863,6.4297756 20.265151,6.9376091 19.533449,6.6013883 19.463093,6.2371491 19.674161,5.6487627 19.318863,5.4036017 19.033921,5.2109752 18.393682,5.3510672 18.073562,5.2249844 17.271503,4.9027728 16.564426,4.8012061 15.7096,5.0533717 14.805526,5.3230488 13.901451,5.8553984 13.029037,6.2861813 11.906858,6.8395447 10.151476,6.1285778 9.2368482,6.9446137 L 9.2192592,7.1022172 C 8.46645,7.0952126 8.1533658,7.2142908 7.6256958,7.9112485 7.2457734,8.4120774 7.0522944,8.8953948 6.8236374,9.4487582 6.6512652,9.8690342 6.2924496,10.254287 6.2256114,10.723595 c -0.042214,0.329217 -0.017589,0.74599 0.03166,1.071704 0.024625,0.18212 1.653366,-0.311705 1.8609162,-0.287188 0.756327,0.09806 1.3402818,0.826542 1.9453434,1.215298 0.517117,0.325714 1.143285,0.661934 1.234748,1.288846 0.11257,0.756497 -0.02814,1.600551 -0.007,2.367555 0.04221,1.5235 1.625224,2.682762 2.567994,3.736954 0.418619,0.469308 0.453797,1.054192 0.865379,1.495482 0.228657,0.248663 0.921664,1.484975 1.428227,1.026174 0.404547,-0.364239 -0.654311,-1.477971 -0.569884,-1.989306 0.04573,-0.311705 0.756327,0.311704 0.798541,0.357234 0.295495,0.35023 0.450278,0.854561 0.605062,1.27834 0.334191,0.9141 0.629686,1.320367 1.400084,1.677601 -0.04573,0.437788 0.404547,0.731981 0.805576,0.959631 0.439725,0.248663 0.918146,0.255667 1.386013,0.462303 0.443243,0.199631 0.9287,0.196129 1.340282,0.39576 0.612097,0.294193 0.200515,0.584884 0.545259,1.022672 0.38344,0.490322 1.111625,0.189124 1.628742,0.269677 1.108107,0.171612 0.921663,1.225805 1.611152,1.859721 0.376405,0.353732 1.020162,0.315207 1.495065,0.367742 0.186443,0.02101 0.429172,0.02452 0.576919,0.157603 0.369369,0.325714 -0.06332,0.774008 -0.204032,1.092718 -0.193479,0.42728 -0.327156,0.886082 -0.411583,1.348385 -0.235692,1.288847 -0.186443,2.728292 0.756327,3.726447 1.027198,1.089216 2.283052,1.58304 2.673528,3.138061 0.334191,1.299353 0.02463,2.570688 -0.214586,3.85253 -0.147747,0.770506 -1.206605,2.108385 -0.154783,2.675757 0.914628,0.493825 2.469496,-0.865068 3.067522,-1.383408 1.410638,-1.225805 3.275072,-1.971795 4.203771,-3.691424 0.439725,-0.816036 0.830201,-1.677602 1.600599,-2.241472 0.404547,-0.297696 0.872414,-0.493825 1.305104,-0.742488 0.918145,-0.521843 1.466922,-1.632072 1.878505,-2.553177 0.485456,-1.117233 0.0387,-1.747647 -0.840754,-2.402577 z M 24.869951,12.565805 c 0.249764,-0.05954 0.587473,-0.04553 0.693007,-0.02101 0.404547,0.09807 0.70356,0.413272 1.013126,0.665437 0.22514,0.178618 0.415101,0.367742 0.615615,0.567373 0.130159,0.129585 0.253282,0.245161 0.22514,0.458801 -0.02111,0.185622 -0.126641,0.276682 -0.295496,0.294193 -0.306048,0.03152 -0.443242,-0.16811 -0.717631,-0.21364 -0.650793,-0.108571 -0.921663,0.984147 -1.572456,0.686451 -0.165337,-0.07705 -0.116088,-0.21364 -0.116088,-0.388755 -0.0035,-0.133088 0,-0.252166 0.04925,-0.367742 0.06332,-0.147096 0.165337,-0.269677 0.28846,-0.378248 0.07739,-0.06654 0.204032,-0.119078 0.263835,-0.206636 0.14423,-0.224147 -0.0598,-0.462304 -0.263835,-0.546359 -0.126641,-0.05253 -0.313084,-0.05604 -0.393994,-0.16811 -0.151265,-0.21364 -0.0035,-0.325714 0.211068,-0.381751 z"
     id="path43"
     style="fill:url(#j);stroke:#1a7a0b;stroke-width:0.406207"
     clip-path="url(#clipPath934)" />
  <path
     fill="url(#k)"
     d="m 50.943885,24.690768 c -0.007,-1.05069 0.04221,-2.490136 -0.837236,-3.250135 -0.812612,-0.703962 -1.815185,-0.276681 -2.487085,0.39576 -1.301586,1.306358 -1.829256,3.771977 -0.745774,5.358519 0.40103,0.588387 0.911111,1.078709 1.579493,1.23281 0.65431,0.150599 1.903129,0.231152 2.223249,-0.434285 0.182926,-0.381751 0.11257,-0.830045 0.11257,-1.246819 -0.0035,-0.710967 0.161819,-1.351888 0.154783,-2.05585 z"
     id="path45"
     style="fill:url(#k);stroke:#1a7a0b;stroke-width:0.406207"
     clip-path="url(#clipPath928)" />
  <path
     fill="url(#l)"
     d="m 30.586376,23.356391 c -0.323637,-0.161105 -0.44676,-0.434285 -0.661346,-0.651427 -0.105534,-0.105069 -0.232175,-0.196129 -0.4151,-0.252166 -0.344745,-0.09806 -0.780952,-0.05954 -1.13625,-0.03852 -0.524152,0.03152 -1.860916,0.119078 -1.927754,0.851059 -0.08795,0.935114 1.203087,0.830045 1.843327,0.819538 0.439725,-0.007 0.865379,-0.16811 1.305104,-0.05954 0.643757,0.157603 0.499527,0.728478 0.999055,0.945621 0.179408,0.07705 0.73522,0.182119 0.907592,0.196129 0.64024,0.05604 2.177519,-0.311705 1.769454,-1.222303 -0.369369,-0.83705 -2.026253,-0.262673 -2.684082,-0.588387 z"
     id="path47"
     style="fill:url(#l);stroke:#1a7a0b;stroke-width:0.406207"
     clip-path="url(#clipPath922)" />
  <circle
     cx="25.6"
     cy="25.599998"
     r="23.08786"
     fill="none"
     stroke="url(#m)"
     stroke-width="1.82428169"
     id="circle51" />
</svg>
